{"title":"Bandidas 2006 DVDrip English Klam","uid":5844287,"size":1469777954,"categoryP":"video","categoryS":"movies","magnet":"?xt=urn:btih:792360bf2063235a90cb647e1fd3efff7afb31b0&amp;dn=Bandidas+2006+DVDrip+English+Klam&amp;tr=udp%3A%2F%2Ftracker.openbittorrent.com%3A80&amp;tr=udp%3A%2F%2Fopen.demonii.com%3A1337&amp;tr=udp%3A%2F%2Ftracker.coppersurfer.tk%3A6969&amp;tr=udp%3A%2F%2Fexodus.desync.com%3A6969","seeders":0,"leechers":0,"uploader":"Klambake","files":-1,"time":1285098038,"description":"With: Penelope Cruz, Salma Hayek en Steve Zahn\n\nIn 1848, a New York bank wants to put a railroad across Mexico, so it buys up small banks around Santa Rita, Durango, and evicts farmers on the proposed rail line who owe money. The bank's henchman is the murderous Jackson. He runs afoul of two women, MarÃƒÂ­a, the tough but uneducated daughter of a farmer, and Sara, the European-educated daughter of the owner of one of these banks. To feed the now landless people and to seek revenge, MarÃƒÂ­a and Sara become bank robbers, veritable Robin Hoods. But Jackson and his hired guns are after them. What are the women's options?\n\nGeneral:\n\nComplete name                    : Klambake\\Bandidas\\Bandidas.avi\nFormat                           : AVI\nFormat/Info                      : Audio Video Interleave\nFile size                        : 1.37 GiB\nDuration                         : 1h 32mn\nOverall bit rate                 : 2 124 Kbps\n\nVideo:\n\nFormat                           : MPEG-4 Visual\nFormat profile                   : Simple@L3\nFormat settings, BVOP            : No\nFormat settings, QPel            : No\nFormat settings, GMC             : No warppoints\nFormat settings, Matrix          : Default (H.263)\nCodec ID                         : XVID\nCodec ID/Hint                    : XviD\nDuration                         : 1h 32mn\nBit rate                         : 1 665 Kbps\nWidth                            : 720 pixels\nHeight                           : 400 pixels\nDisplay aspect ratio             : 16:9\nFrame rate                       : 25.000 fps\nColor space                      : YUV\nChroma subsampling               : 4:2:0\nBit depth                        : 8 bits\nScan type                        : Progressive\nBits/(Pixel*Frame)               : 0.231\nStream size                      : 1.07 GiB (78%)\nWriting library                  : XviD 1.1.2 (UTC 2006-11-01)\n\nAudio:\n\nFormat                           : AC-3\nFormat/Info                      : Audio Coding 3\nMode extension                   : CM (complete main)\nCodec ID                         : 2000\nDuration                         : 1h 32mn\nBit rate mode                    : Constant\nBit rate                         : 448 Kbps\nChannel(s)                       : 6 channels\nChannel positions                : Front: L C R, Side: L R, LFE\nSampling rate                    : 48.0 KHz\nStream size                      : 295 MiB (21%)\nAlignment                        : Aligned on interleaves\nInterleave, duration             : 32 ms (0.80 video frame)\nInterleave, preload duration     : 1856 ms\n","torrent":{"xt":"urn:btih:792360bf2063235a90cb647e1fd3efff7afb31b0","amp;dn":"Bandidas+2006+DVDrip+English+Klam","amp;tr":["udp%3A%2F%2Ftracker.openbittorrent.com%3A80","udp%3A%2F%2Fopen.demonii.com%3A1337","udp%3A%2F%2Ftracker.coppersurfer.tk%3A6969","udp%3A%2F%2Fexodus.desync.com%3A6969"],"infoHash":"792360bf2063235a90cb647e1fd3efff7afb31b0","infoHashBuffer":{"type":"Buffer","data":[121,35,96,191,32,99,35,90,144,203,100,126,31,211,239,255,122,251,49,176]},"announce":[],"urlList":[]}}